<svg xmlns="http://www.w3.org/2000/svg" viewBox="0 0 120 120" fill="none">
  <defs>
    <linearGradient id="fg" x1="0" y1="0" x2="120" y2="120" gradientUnits="userSpaceOnUse">
      <stop offset="0%" stop-color="hsl(220,85%,62%)"/>
      <stop offset="45%" stop-color="hsl(265,75%,60%)"/>
      <stop offset="100%" stop-color="hsl(175,80%,50%)"/>
    </linearGradient>
    <linearGradient id="ff" x1="10" y1="35" x2="110" y2="85" gradientUnits="userSpaceOnUse">
      <stop offset="0%" stop-color="hsl(225,85%,65%)"/>
      <stop offset="50%" stop-color="hsl(260,78%,62%)"/>
      <stop offset="100%" stop-color="hsl(180,75%,52%)"/>
    </linearGradient>
    <radialGradient id="bg" cx="50%" cy="50%" r="50%">
      <stop offset="0%" stop-color="hsl(260,80%,70%)" stop-opacity="0.08"/>
      <stop offset="100%" stop-color="hsl(260,80%,70%)" stop-opacity="0"/>
    </radialGradient>
  </defs>
  <rect x="8" y="8" width="104" height="104" rx="26" fill="url(#bg)"/>
  <rect x="8" y="8" width="104" height="104" rx="26" stroke="url(#fg)" stroke-width="3.5" fill="none"/>
  <path d="M22 38 L14 60 L22 82" stroke="url(#ff)" stroke-width="3" stroke-linecap="round" stroke-linejoin="round" fill="none" opacity="0.5"/>
  <path d="M98 38 L106 60 L98 82" stroke="url(#ff)" stroke-width="3" stroke-linecap="round" stroke-linejoin="round" fill="none" opacity="0.5"/>
  <path d="M28 42 L40 78 L52 54 L64 78 L76 42" stroke="url(#ff)" stroke-width="5.5" stroke-linecap="round" stroke-linejoin="round" fill="none"/>
  <path d="M80 52 Q88 46 92 52 Q96 58 88 62 Q80 66 84 72 Q88 78 96 72" stroke="url(#ff)" stroke-width="4" stroke-linecap="round" stroke-linejoin="round" fill="none"/>
  <circle cx="100" cy="28" r="4.5" fill="hsl(175,80%,50%)"/>
</svg>
